G04*
G04 #@! TF.GenerationSoftware,Altium Limited,Altium Designer,25.5.2 (35)*
G04*
G04 Layer_Color=2752767*
%FSLAX44Y44*%
%MOMM*%
G71*
G04*
G04 #@! TF.SameCoordinates,152D6A4D-AA4F-4EEC-A116-D63785992ADA*
G04*
G04*
G04 #@! TF.FilePolarity,Positive*
G04*
G01*
G75*
%ADD13C,0.1270*%
%ADD68C,0.1693*%
%ADD69C,0.1016*%
D13*
X541020Y347980D02*
Y358140D01*
X551180D01*
Y347980D01*
X541020D01*
X543052Y350012D02*
Y356108D01*
X549148D01*
Y350012D01*
X543052D01*
X515620Y347980D02*
Y358140D01*
X525780D01*
Y347980D01*
X515620D01*
X517652Y350012D02*
Y356108D01*
X523748D01*
Y350012D01*
X517652D01*
X515620Y271780D02*
Y281940D01*
X525780D01*
Y271780D01*
X515620D01*
X517652Y273812D02*
Y279908D01*
X523748D01*
Y273812D01*
X517652D01*
X541020Y271780D02*
Y281940D01*
X551180D01*
Y271780D01*
X541020D01*
X543052Y273812D02*
Y279908D01*
X549148D01*
Y273812D01*
X543052D01*
X541020Y485140D02*
Y495300D01*
X551180D01*
Y485140D01*
X541020D01*
X543052Y487172D02*
Y493268D01*
X549148D01*
Y487172D01*
X543052D01*
X515620Y485140D02*
Y495300D01*
X525780D01*
Y485140D01*
X515620D01*
X517652Y487172D02*
Y493268D01*
X523748D01*
Y487172D01*
X517652D01*
X515620Y408940D02*
Y419100D01*
X525780D01*
Y408940D01*
X515620D01*
X517652Y410972D02*
Y417068D01*
X523748D01*
Y410972D01*
X517652D01*
X541020Y408940D02*
Y419100D01*
X551180D01*
Y408940D01*
X541020D01*
X543052Y410972D02*
Y417068D01*
X549148D01*
Y410972D01*
X543052D01*
X541020Y205740D02*
Y215900D01*
X551180D01*
Y205740D01*
X541020D01*
X543052Y207772D02*
Y213868D01*
X549148D01*
Y207772D01*
X543052D01*
X515620Y205740D02*
Y215900D01*
X525780D01*
Y205740D01*
X515620D01*
X517652Y207772D02*
Y213868D01*
X523748D01*
Y207772D01*
X517652D01*
X515620Y129540D02*
Y139700D01*
X525780D01*
Y129540D01*
X515620D01*
X517652Y131572D02*
Y137668D01*
X523748D01*
Y131572D01*
X517652D01*
X541020Y129540D02*
Y139700D01*
X551180D01*
Y129540D01*
X541020D01*
X543052Y131572D02*
Y137668D01*
X549148D01*
Y131572D01*
X543052D01*
X396240Y1112520D02*
X391160Y1122680D01*
X401320D01*
X396240Y1112520D01*
X383540D02*
X378460Y1122680D01*
X388620D01*
X383540Y1112520D01*
X370840D02*
X365760Y1122680D01*
X375920D01*
X370840Y1112520D01*
X883920Y1127760D02*
X878840Y1137920D01*
X889000D01*
X883920Y1127760D01*
Y1129792D02*
X880872Y1135888D01*
X886968D01*
X883920Y1129792D01*
X523240Y1137920D02*
X525780Y1143000D01*
X523240Y1148080D01*
X528320Y1145540D01*
X533400Y1148080D01*
X530860Y1143000D01*
X533400Y1137920D01*
X528320Y1140460D01*
X523240Y1137920D01*
X660400Y606620D02*
X662940Y609160D01*
X665480D01*
X662940Y611700D01*
X665480Y614240D01*
X662940D01*
X660400Y616780D01*
X657860Y614240D01*
X655320D01*
X657860Y611700D01*
X655320Y609160D01*
X657860D01*
X660400Y606620D01*
Y608652D02*
X661924Y610176D01*
X663448D01*
X661924Y611700D01*
X663448Y613224D01*
X661924D01*
X660400Y614748D01*
X658876Y613224D01*
X657352D01*
X658876Y611700D01*
X657352Y610176D01*
X658876D01*
X660400Y608652D01*
Y454220D02*
X662940Y456760D01*
X665480D01*
X662940Y459300D01*
X665480Y461840D01*
X662940D01*
X660400Y464380D01*
X657860Y461840D01*
X655320D01*
X657860Y459300D01*
X655320Y456760D01*
X657860D01*
X660400Y454220D01*
Y456252D02*
X661924Y457776D01*
X663448D01*
X661924Y459300D01*
X663448Y460824D01*
X661924D01*
X660400Y462348D01*
X658876Y460824D01*
X657352D01*
X658876Y459300D01*
X657352Y457776D01*
X658876D01*
X660400Y456252D01*
X1100836Y154178D02*
X1103376Y159258D01*
X1100836Y164338D01*
X1105916Y161798D01*
X1110996Y164338D01*
X1108456Y159258D01*
X1110996Y154178D01*
X1105916Y156718D01*
X1100836Y154178D01*
X1102868Y156210D02*
X1104392Y159258D01*
X1102868Y162306D01*
X1105916Y160782D01*
X1108964Y162306D01*
X1107440Y159258D01*
X1108964Y156210D01*
X1105916Y157734D01*
X1102868Y156210D01*
X660400Y276420D02*
X662940Y278960D01*
X665480D01*
X662940Y281500D01*
X665480Y284040D01*
X662940D01*
X660400Y286580D01*
X657860Y284040D01*
X655320D01*
X657860Y281500D01*
X655320Y278960D01*
X657860D01*
X660400Y276420D01*
Y278452D02*
X661924Y279976D01*
X663448D01*
X661924Y281500D01*
X663448Y283024D01*
X661924D01*
X660400Y284548D01*
X658876Y283024D01*
X657352D01*
X658876Y281500D01*
X657352Y279976D01*
X658876D01*
X660400Y278452D01*
X482600Y-30480D02*
X485140Y-27940D01*
X487680D01*
X485140Y-25400D01*
X487680Y-22860D01*
X485140D01*
X482600Y-20320D01*
X480060Y-22860D01*
X477520D01*
X480060Y-25400D01*
X477520Y-27940D01*
X480060D01*
X482600Y-30480D01*
X279400Y528320D02*
X281940Y530860D01*
X284480D01*
X281940Y533400D01*
X284480Y535940D01*
X281940D01*
X279400Y538480D01*
X276860Y535940D01*
X274320D01*
X276860Y533400D01*
X274320Y530860D01*
X276860D01*
X279400Y528320D01*
Y375920D02*
X281940Y378460D01*
X284480D01*
X281940Y381000D01*
X284480Y383540D01*
X281940D01*
X279400Y386080D01*
X276860Y383540D01*
X274320D01*
X276860Y381000D01*
X274320Y378460D01*
X276860D01*
X279400Y375920D01*
X482600Y-107950D02*
X485140Y-105410D01*
X487680D01*
X485140Y-102870D01*
X487680Y-100330D01*
X485140D01*
X482600Y-97790D01*
X480060Y-100330D01*
X477520D01*
X480060Y-102870D01*
X477520Y-105410D01*
X480060D01*
X482600Y-107950D01*
Y-82550D02*
X485140Y-80010D01*
X487680D01*
X485140Y-77470D01*
X487680Y-74930D01*
X485140D01*
X482600Y-72390D01*
X480060Y-74930D01*
X477520D01*
X480060Y-77470D01*
X477520Y-80010D01*
X480060D01*
X482600Y-82550D01*
Y-55880D02*
X485140Y-53340D01*
X487680D01*
X485140Y-50800D01*
X487680Y-48260D01*
X485140D01*
X482600Y-45720D01*
X480060Y-48260D01*
X477520D01*
X480060Y-50800D01*
X477520Y-53340D01*
X480060D01*
X482600Y-55880D01*
X918210Y-83820D02*
X920750Y-81280D01*
X923290D01*
X920750Y-78740D01*
X923290Y-76200D01*
X920750D01*
X918210Y-73660D01*
X915670Y-76200D01*
X913130D01*
X915670Y-78740D01*
X913130Y-81280D01*
X915670D01*
X918210Y-83820D01*
Y-33020D02*
X920750Y-30480D01*
X923290D01*
X920750Y-27940D01*
X923290Y-25400D01*
X920750D01*
X918210Y-22860D01*
X915670Y-25400D01*
X913130D01*
X915670Y-27940D01*
X913130Y-30480D01*
X915670D01*
X918210Y-33020D01*
X711200Y606620D02*
X713740Y609160D01*
X716280D01*
X713740Y611700D01*
X716280Y614240D01*
X713740D01*
X711200Y616780D01*
X708660Y614240D01*
X706120D01*
X708660Y611700D01*
X706120Y609160D01*
X708660D01*
X711200Y606620D01*
Y608652D02*
X712724Y610176D01*
X714248D01*
X712724Y611700D01*
X714248Y613224D01*
X712724D01*
X711200Y614748D01*
X709676Y613224D01*
X708152D01*
X709676Y611700D01*
X708152Y610176D01*
X709676D01*
X711200Y608652D01*
X685800Y606620D02*
X688340Y609160D01*
X690880D01*
X688340Y611700D01*
X690880Y614240D01*
X688340D01*
X685800Y616780D01*
X683260Y614240D01*
X680720D01*
X683260Y611700D01*
X680720Y609160D01*
X683260D01*
X685800Y606620D01*
Y608652D02*
X687324Y610176D01*
X688848D01*
X687324Y611700D01*
X688848Y613224D01*
X687324D01*
X685800Y614748D01*
X684276Y613224D01*
X682752D01*
X684276Y611700D01*
X682752Y610176D01*
X684276D01*
X685800Y608652D01*
X711200Y454220D02*
X713740Y456760D01*
X716280D01*
X713740Y459300D01*
X716280Y461840D01*
X713740D01*
X711200Y464380D01*
X708660Y461840D01*
X706120D01*
X708660Y459300D01*
X706120Y456760D01*
X708660D01*
X711200Y454220D01*
Y456252D02*
X712724Y457776D01*
X714248D01*
X712724Y459300D01*
X714248Y460824D01*
X712724D01*
X711200Y462348D01*
X709676Y460824D01*
X708152D01*
X709676Y459300D01*
X708152Y457776D01*
X709676D01*
X711200Y456252D01*
X685800Y454220D02*
X688340Y456760D01*
X690880D01*
X688340Y459300D01*
X690880Y461840D01*
X688340D01*
X685800Y464380D01*
X683260Y461840D01*
X680720D01*
X683260Y459300D01*
X680720Y456760D01*
X683260D01*
X685800Y454220D01*
Y456252D02*
X687324Y457776D01*
X688848D01*
X687324Y459300D01*
X688848Y460824D01*
X687324D01*
X685800Y462348D01*
X684276Y460824D01*
X682752D01*
X684276Y459300D01*
X682752Y457776D01*
X684276D01*
X685800Y456252D01*
X711200Y276420D02*
X713740Y278960D01*
X716280D01*
X713740Y281500D01*
X716280Y284040D01*
X713740D01*
X711200Y286580D01*
X708660Y284040D01*
X706120D01*
X708660Y281500D01*
X706120Y278960D01*
X708660D01*
X711200Y276420D01*
Y278452D02*
X712724Y279976D01*
X714248D01*
X712724Y281500D01*
X714248Y283024D01*
X712724D01*
X711200Y284548D01*
X709676Y283024D01*
X708152D01*
X709676Y281500D01*
X708152Y279976D01*
X709676D01*
X711200Y278452D01*
X685800Y276420D02*
X688340Y278960D01*
X690880D01*
X688340Y281500D01*
X690880Y284040D01*
X688340D01*
X685800Y286580D01*
X683260Y284040D01*
X680720D01*
X683260Y281500D01*
X680720Y278960D01*
X683260D01*
X685800Y276420D01*
Y278452D02*
X687324Y279976D01*
X688848D01*
X687324Y281500D01*
X688848Y283024D01*
X687324D01*
X685800Y284548D01*
X684276Y283024D01*
X682752D01*
X684276Y281500D01*
X682752Y279976D01*
X684276D01*
X685800Y278452D01*
X574040Y1137920D02*
X576580Y1143000D01*
X574040Y1148080D01*
X579120Y1145540D01*
X584200Y1148080D01*
X581660Y1143000D01*
X584200Y1137920D01*
X579120Y1140460D01*
X574040Y1137920D01*
X833120Y1127760D02*
X828040Y1137920D01*
X838200D01*
X833120Y1127760D01*
Y1129792D02*
X830072Y1135888D01*
X836168D01*
X833120Y1129792D01*
X782320Y1127760D02*
X777240Y1137920D01*
X787400D01*
X782320Y1127760D01*
Y1129792D02*
X779272Y1135888D01*
X785368D01*
X782320Y1129792D01*
X25400Y680720D02*
X27940Y683260D01*
X30480D01*
X27940Y685800D01*
X30480Y688340D01*
X27940D01*
X25400Y690880D01*
X22860Y688340D01*
X20320D01*
X22860Y685800D01*
X20320Y683260D01*
X22860D01*
X25400Y680720D01*
Y477520D02*
X27940Y480060D01*
X30480D01*
X27940Y482600D01*
X30480Y485140D01*
X27940D01*
X25400Y487680D01*
X22860Y485140D01*
X20320D01*
X22860Y482600D01*
X20320Y480060D01*
X22860D01*
X25400Y477520D01*
X1047710Y262270D02*
X1050250D01*
X1052790Y264810D01*
X1055330Y262270D01*
X1057870D01*
Y264810D01*
X1055330Y267350D01*
X1057870Y269890D01*
Y272430D01*
X1055330D01*
X1052790Y269890D01*
X1050250Y272430D01*
X1047710D01*
Y269890D01*
X1050250Y267350D01*
X1047710Y264810D01*
Y262270D01*
X1172250Y384810D02*
Y382270D01*
X1177330D01*
Y384810D01*
X1179870D01*
Y389890D01*
X1177330D01*
Y392430D01*
X1172250D01*
Y389890D01*
X1169710D01*
Y384810D01*
X1172250D01*
X1027710Y326150D02*
X1032790Y331230D01*
X1037870Y326150D01*
X1032790Y321070D01*
X1027710Y326150D01*
X1172250Y264810D02*
Y262270D01*
X1177330D01*
Y264810D01*
X1179870D01*
Y269890D01*
X1177330D01*
Y272430D01*
X1172250D01*
Y269890D01*
X1169710D01*
Y264810D01*
X1172250D01*
X1047710Y382270D02*
X1050250D01*
X1052790Y384810D01*
X1055330Y382270D01*
X1057870D01*
Y384810D01*
X1055330Y387350D01*
X1057870Y389890D01*
Y392430D01*
X1055330D01*
X1052790Y389890D01*
X1050250Y392430D01*
X1047710D01*
Y389890D01*
X1050250Y387350D01*
X1047710Y384810D01*
Y382270D01*
X1377950Y438150D02*
X1380490Y443230D01*
X1377950Y448310D01*
X1383030Y445770D01*
X1388110Y448310D01*
X1385570Y443230D01*
X1388110Y438150D01*
X1383030Y440690D01*
X1377950Y438150D01*
Y387350D02*
X1380490Y392430D01*
X1377950Y397510D01*
X1383030Y394970D01*
X1388110Y397510D01*
X1385570Y392430D01*
X1388110Y387350D01*
X1383030Y389890D01*
X1377950Y387350D01*
X1047710Y797870D02*
X1050250D01*
X1052790Y800410D01*
X1055330Y797870D01*
X1057870D01*
Y800410D01*
X1055330Y802950D01*
X1057870Y805490D01*
Y808030D01*
X1055330D01*
X1052790Y805490D01*
X1050250Y808030D01*
X1047710D01*
Y805490D01*
X1050250Y802950D01*
X1047710Y800410D01*
Y797870D01*
Y594670D02*
X1050250D01*
X1052790Y597210D01*
X1055330Y594670D01*
X1057870D01*
Y597210D01*
X1055330Y599750D01*
X1057870Y602290D01*
Y604830D01*
X1055330D01*
X1052790Y602290D01*
X1050250Y604830D01*
X1047710D01*
Y602290D01*
X1050250Y599750D01*
X1047710Y597210D01*
Y594670D01*
X1125728Y154178D02*
X1128268Y159258D01*
X1125728Y164338D01*
X1130808Y161798D01*
X1135888Y164338D01*
X1133348Y159258D01*
X1135888Y154178D01*
X1130808Y156718D01*
X1125728Y154178D01*
X1127760Y156210D02*
X1129284Y159258D01*
X1127760Y162306D01*
X1130808Y160782D01*
X1133856Y162306D01*
X1132332Y159258D01*
X1133856Y156210D01*
X1130808Y157734D01*
X1127760Y156210D01*
X528320Y837640D02*
Y847800D01*
X538480D01*
Y837640D01*
X528320D01*
X25400Y223520D02*
X27940Y226060D01*
X30480D01*
X27940Y228600D01*
X30480Y231140D01*
X27940D01*
X25400Y233680D01*
X22860Y231140D01*
X20320D01*
X22860Y228600D01*
X20320Y226060D01*
X22860D01*
X25400Y223520D01*
X1075690Y154178D02*
X1078230Y159258D01*
X1075690Y164338D01*
X1080770Y161798D01*
X1085850Y164338D01*
X1083310Y159258D01*
X1085850Y154178D01*
X1080770Y156718D01*
X1075690Y154178D01*
X1077722Y156210D02*
X1079246Y159258D01*
X1077722Y162306D01*
X1080770Y160782D01*
X1083818Y162306D01*
X1082294Y159258D01*
X1083818Y156210D01*
X1080770Y157734D01*
X1077722Y156210D01*
X1051052Y154178D02*
X1053592Y159258D01*
X1051052Y164338D01*
X1056132Y161798D01*
X1061212Y164338D01*
X1058672Y159258D01*
X1061212Y154178D01*
X1056132Y156718D01*
X1051052Y154178D01*
X1053084Y156210D02*
X1054608Y159258D01*
X1053084Y162306D01*
X1056132Y160782D01*
X1059180Y162306D01*
X1057656Y159258D01*
X1059180Y156210D01*
X1056132Y157734D01*
X1053084Y156210D01*
X25400Y655320D02*
X27940Y657860D01*
X30480D01*
X27940Y660400D01*
X30480Y662940D01*
X27940D01*
X25400Y665480D01*
X22860Y662940D01*
X20320D01*
X22860Y660400D01*
X20320Y657860D01*
X22860D01*
X25400Y655320D01*
Y629920D02*
X27940Y632460D01*
X30480D01*
X27940Y635000D01*
X30480Y637540D01*
X27940D01*
X25400Y640080D01*
X22860Y637540D01*
X20320D01*
X22860Y635000D01*
X20320Y632460D01*
X22860D01*
X25400Y629920D01*
Y604520D02*
X27940Y607060D01*
X30480D01*
X27940Y609600D01*
X30480Y612140D01*
X27940D01*
X25400Y614680D01*
X22860Y612140D01*
X20320D01*
X22860Y609600D01*
X20320Y607060D01*
X22860D01*
X25400Y604520D01*
Y579120D02*
X27940Y581660D01*
X30480D01*
X27940Y584200D01*
X30480Y586740D01*
X27940D01*
X25400Y589280D01*
X22860Y586740D01*
X20320D01*
X22860Y584200D01*
X20320Y581660D01*
X22860D01*
X25400Y579120D01*
Y553720D02*
X27940Y556260D01*
X30480D01*
X27940Y558800D01*
X30480Y561340D01*
X27940D01*
X25400Y563880D01*
X22860Y561340D01*
X20320D01*
X22860Y558800D01*
X20320Y556260D01*
X22860D01*
X25400Y553720D01*
Y528320D02*
X27940Y530860D01*
X30480D01*
X27940Y533400D01*
X30480Y535940D01*
X27940D01*
X25400Y538480D01*
X22860Y535940D01*
X20320D01*
X22860Y533400D01*
X20320Y530860D01*
X22860D01*
X25400Y528320D01*
Y502920D02*
X27940Y505460D01*
X30480D01*
X27940Y508000D01*
X30480Y510540D01*
X27940D01*
X25400Y513080D01*
X22860Y510540D01*
X20320D01*
X22860Y508000D01*
X20320Y505460D01*
X22860D01*
X25400Y502920D01*
Y452120D02*
X27940Y454660D01*
X30480D01*
X27940Y457200D01*
X30480Y459740D01*
X27940D01*
X25400Y462280D01*
X22860Y459740D01*
X20320D01*
X22860Y457200D01*
X20320Y454660D01*
X22860D01*
X25400Y452120D01*
Y426720D02*
X27940Y429260D01*
X30480D01*
X27940Y431800D01*
X30480Y434340D01*
X27940D01*
X25400Y436880D01*
X22860Y434340D01*
X20320D01*
X22860Y431800D01*
X20320Y429260D01*
X22860D01*
X25400Y426720D01*
Y401320D02*
X27940Y403860D01*
X30480D01*
X27940Y406400D01*
X30480Y408940D01*
X27940D01*
X25400Y411480D01*
X22860Y408940D01*
X20320D01*
X22860Y406400D01*
X20320Y403860D01*
X22860D01*
X25400Y401320D01*
Y375920D02*
X27940Y378460D01*
X30480D01*
X27940Y381000D01*
X30480Y383540D01*
X27940D01*
X25400Y386080D01*
X22860Y383540D01*
X20320D01*
X22860Y381000D01*
X20320Y378460D01*
X22860D01*
X25400Y375920D01*
Y350520D02*
X27940Y353060D01*
X30480D01*
X27940Y355600D01*
X30480Y358140D01*
X27940D01*
X25400Y360680D01*
X22860Y358140D01*
X20320D01*
X22860Y355600D01*
X20320Y353060D01*
X22860D01*
X25400Y350520D01*
Y325120D02*
X27940Y327660D01*
X30480D01*
X27940Y330200D01*
X30480Y332740D01*
X27940D01*
X25400Y335280D01*
X22860Y332740D01*
X20320D01*
X22860Y330200D01*
X20320Y327660D01*
X22860D01*
X25400Y325120D01*
Y299720D02*
X27940Y302260D01*
X30480D01*
X27940Y304800D01*
X30480Y307340D01*
X27940D01*
X25400Y309880D01*
X22860Y307340D01*
X20320D01*
X22860Y304800D01*
X20320Y302260D01*
X22860D01*
X25400Y299720D01*
Y274320D02*
X27940Y276860D01*
X30480D01*
X27940Y279400D01*
X30480Y281940D01*
X27940D01*
X25400Y284480D01*
X22860Y281940D01*
X20320D01*
X22860Y279400D01*
X20320Y276860D01*
X22860D01*
X25400Y274320D01*
Y248920D02*
X27940Y251460D01*
X30480D01*
X27940Y254000D01*
X30480Y256540D01*
X27940D01*
X25400Y259080D01*
X22860Y256540D01*
X20320D01*
X22860Y254000D01*
X20320Y251460D01*
X22860D01*
X25400Y248920D01*
X279400Y655320D02*
X281940Y657860D01*
X284480D01*
X281940Y660400D01*
X284480Y662940D01*
X281940D01*
X279400Y665480D01*
X276860Y662940D01*
X274320D01*
X276860Y660400D01*
X274320Y657860D01*
X276860D01*
X279400Y655320D01*
Y629920D02*
X281940Y632460D01*
X284480D01*
X281940Y635000D01*
X284480Y637540D01*
X281940D01*
X279400Y640080D01*
X276860Y637540D01*
X274320D01*
X276860Y635000D01*
X274320Y632460D01*
X276860D01*
X279400Y629920D01*
Y579120D02*
X281940Y581660D01*
X284480D01*
X281940Y584200D01*
X284480Y586740D01*
X281940D01*
X279400Y589280D01*
X276860Y586740D01*
X274320D01*
X276860Y584200D01*
X274320Y581660D01*
X276860D01*
X279400Y579120D01*
Y553720D02*
X281940Y556260D01*
X284480D01*
X281940Y558800D01*
X284480Y561340D01*
X281940D01*
X279400Y563880D01*
X276860Y561340D01*
X274320D01*
X276860Y558800D01*
X274320Y556260D01*
X276860D01*
X279400Y553720D01*
Y604520D02*
X281940Y607060D01*
X284480D01*
X281940Y609600D01*
X284480Y612140D01*
X281940D01*
X279400Y614680D01*
X276860Y612140D01*
X274320D01*
X276860Y609600D01*
X274320Y607060D01*
X276860D01*
X279400Y604520D01*
Y680720D02*
X281940Y683260D01*
X284480D01*
X281940Y685800D01*
X284480Y688340D01*
X281940D01*
X279400Y690880D01*
X276860Y688340D01*
X274320D01*
X276860Y685800D01*
X274320Y683260D01*
X276860D01*
X279400Y680720D01*
Y223520D02*
X281940Y226060D01*
X284480D01*
X281940Y228600D01*
X284480Y231140D01*
X281940D01*
X279400Y233680D01*
X276860Y231140D01*
X274320D01*
X276860Y228600D01*
X274320Y226060D01*
X276860D01*
X279400Y223520D01*
Y350520D02*
X281940Y353060D01*
X284480D01*
X281940Y355600D01*
X284480Y358140D01*
X281940D01*
X279400Y360680D01*
X276860Y358140D01*
X274320D01*
X276860Y355600D01*
X274320Y353060D01*
X276860D01*
X279400Y350520D01*
Y401320D02*
X281940Y403860D01*
X284480D01*
X281940Y406400D01*
X284480Y408940D01*
X281940D01*
X279400Y411480D01*
X276860Y408940D01*
X274320D01*
X276860Y406400D01*
X274320Y403860D01*
X276860D01*
X279400Y401320D01*
Y426720D02*
X281940Y429260D01*
X284480D01*
X281940Y431800D01*
X284480Y434340D01*
X281940D01*
X279400Y436880D01*
X276860Y434340D01*
X274320D01*
X276860Y431800D01*
X274320Y429260D01*
X276860D01*
X279400Y426720D01*
Y452120D02*
X281940Y454660D01*
X284480D01*
X281940Y457200D01*
X284480Y459740D01*
X281940D01*
X279400Y462280D01*
X276860Y459740D01*
X274320D01*
X276860Y457200D01*
X274320Y454660D01*
X276860D01*
X279400Y452120D01*
Y477520D02*
X281940Y480060D01*
X284480D01*
X281940Y482600D01*
X284480Y485140D01*
X281940D01*
X279400Y487680D01*
X276860Y485140D01*
X274320D01*
X276860Y482600D01*
X274320Y480060D01*
X276860D01*
X279400Y477520D01*
Y502920D02*
X281940Y505460D01*
X284480D01*
X281940Y508000D01*
X284480Y510540D01*
X281940D01*
X279400Y513080D01*
X276860Y510540D01*
X274320D01*
X276860Y508000D01*
X274320Y505460D01*
X276860D01*
X279400Y502920D01*
Y248920D02*
X281940Y251460D01*
X284480D01*
X281940Y254000D01*
X284480Y256540D01*
X281940D01*
X279400Y259080D01*
X276860Y256540D01*
X274320D01*
X276860Y254000D01*
X274320Y251460D01*
X276860D01*
X279400Y248920D01*
Y274320D02*
X281940Y276860D01*
X284480D01*
X281940Y279400D01*
X284480Y281940D01*
X281940D01*
X279400Y284480D01*
X276860Y281940D01*
X274320D01*
X276860Y279400D01*
X274320Y276860D01*
X276860D01*
X279400Y274320D01*
Y299720D02*
X281940Y302260D01*
X284480D01*
X281940Y304800D01*
X284480Y307340D01*
X281940D01*
X279400Y309880D01*
X276860Y307340D01*
X274320D01*
X276860Y304800D01*
X274320Y302260D01*
X276860D01*
X279400Y299720D01*
Y325120D02*
X281940Y327660D01*
X284480D01*
X281940Y330200D01*
X284480Y332740D01*
X281940D01*
X279400Y335280D01*
X276860Y332740D01*
X274320D01*
X276860Y330200D01*
X274320Y327660D01*
X276860D01*
X279400Y325120D01*
X1047710Y474670D02*
X1050250D01*
X1052790Y477210D01*
X1055330Y474670D01*
X1057870D01*
Y477210D01*
X1055330Y479750D01*
X1057870Y482290D01*
Y484830D01*
X1055330D01*
X1052790Y482290D01*
X1050250Y484830D01*
X1047710D01*
Y482290D01*
X1050250Y479750D01*
X1047710Y477210D01*
Y474670D01*
X1172250Y597210D02*
Y594670D01*
X1177330D01*
Y597210D01*
X1179870D01*
Y602290D01*
X1177330D01*
Y604830D01*
X1172250D01*
Y602290D01*
X1169710D01*
Y597210D01*
X1172250D01*
X1027710Y538550D02*
X1032790Y543630D01*
X1037870Y538550D01*
X1032790Y533470D01*
X1027710Y538550D01*
X1172250Y477210D02*
Y474670D01*
X1177330D01*
Y477210D01*
X1179870D01*
Y482290D01*
X1177330D01*
Y484830D01*
X1172250D01*
Y482290D01*
X1169710D01*
Y477210D01*
X1172250D01*
X1377950Y234950D02*
X1380490Y240030D01*
X1377950Y245110D01*
X1383030Y242570D01*
X1388110Y245110D01*
X1385570Y240030D01*
X1388110Y234950D01*
X1383030Y237490D01*
X1377950Y234950D01*
Y285750D02*
X1380490Y290830D01*
X1377950Y295910D01*
X1383030Y293370D01*
X1388110Y295910D01*
X1385570Y290830D01*
X1388110Y285750D01*
X1383030Y288290D01*
X1377950Y285750D01*
X1172250Y680410D02*
Y677870D01*
X1177330D01*
Y680410D01*
X1179870D01*
Y685490D01*
X1177330D01*
Y688030D01*
X1172250D01*
Y685490D01*
X1169710D01*
Y680410D01*
X1172250D01*
X1027710Y741750D02*
X1032790Y746830D01*
X1037870Y741750D01*
X1032790Y736670D01*
X1027710Y741750D01*
X1172250Y800410D02*
Y797870D01*
X1177330D01*
Y800410D01*
X1179870D01*
Y805490D01*
X1177330D01*
Y808030D01*
X1172250D01*
Y805490D01*
X1169710D01*
Y800410D01*
X1172250D01*
X1047710Y677870D02*
X1050250D01*
X1052790Y680410D01*
X1055330Y677870D01*
X1057870D01*
Y680410D01*
X1055330Y682950D01*
X1057870Y685490D01*
Y688030D01*
X1055330D01*
X1052790Y685490D01*
X1050250Y688030D01*
X1047710D01*
Y685490D01*
X1050250Y682950D01*
X1047710Y680410D01*
Y677870D01*
X528320Y767640D02*
Y777800D01*
X538480D01*
Y767640D01*
X528320D01*
X1377950Y539750D02*
X1380490Y544830D01*
X1377950Y549910D01*
X1383030Y547370D01*
X1388110Y549910D01*
X1385570Y544830D01*
X1388110Y539750D01*
X1383030Y542290D01*
X1377950Y539750D01*
Y590550D02*
X1380490Y595630D01*
X1377950Y600710D01*
X1383030Y598170D01*
X1388110Y600710D01*
X1385570Y595630D01*
X1388110Y590550D01*
X1383030Y593090D01*
X1377950Y590550D01*
Y692150D02*
X1380490Y697230D01*
X1377950Y702310D01*
X1383030Y699770D01*
X1388110Y702310D01*
X1385570Y697230D01*
X1388110Y692150D01*
X1383030Y694690D01*
X1377950Y692150D01*
Y742950D02*
X1380490Y748030D01*
X1377950Y753110D01*
X1383030Y750570D01*
X1388110Y753110D01*
X1385570Y748030D01*
X1388110Y742950D01*
X1383030Y745490D01*
X1377950Y742950D01*
D68*
X795460Y858520D02*
G03*
X795460Y858520I-5080J0D01*
G01*
X769180Y685800D02*
G03*
X769180Y685800I-5080J0D01*
G01*
X968180D02*
G03*
X968180Y685800I-5080J0D01*
G01*
X769180Y279400D02*
G03*
X769180Y279400I-5080J0D01*
G01*
X968180D02*
G03*
X968180Y279400I-5080J0D01*
G01*
X855980Y370840D02*
G03*
X855980Y370840I-5080J0D01*
G01*
X881380D02*
G03*
X881380Y370840I-5080J0D01*
G01*
X769180Y482600D02*
G03*
X769180Y482600I-5080J0D01*
G01*
X968180D02*
G03*
X968180Y482600I-5080J0D01*
G01*
X855980Y563880D02*
G03*
X855980Y563880I-5080J0D01*
G01*
X881380D02*
G03*
X881380Y563880I-5080J0D01*
G01*
X855980Y767080D02*
G03*
X855980Y767080I-5080J0D01*
G01*
X881380D02*
G03*
X881380Y767080I-5080J0D01*
G01*
X596460Y858520D02*
G03*
X596460Y858520I-5080J0D01*
G01*
D69*
X853948Y370840D02*
G03*
X853948Y370840I-3048J0D01*
G01*
X879348D02*
G03*
X879348Y370840I-3048J0D01*
G01*
X853948Y563880D02*
G03*
X853948Y563880I-3048J0D01*
G01*
X879348D02*
G03*
X879348Y563880I-3048J0D01*
G01*
X853948Y767080D02*
G03*
X853948Y767080I-3048J0D01*
G01*
X879348D02*
G03*
X879348Y767080I-3048J0D01*
G01*
M02*
