G04*
G04 #@! TF.GenerationSoftware,Altium Limited,Altium Designer,25.5.2 (35)*
G04*
G04 Layer_Color=8388736*
%FSLAX44Y44*%
%MOMM*%
G71*
G04*
G04 #@! TF.SameCoordinates,152D6A4D-AA4F-4EEC-A116-D63785992ADA*
G04*
G04*
G04 #@! TF.FilePolarity,Negative*
G04*
G01*
G75*
%ADD16R,1.0000X1.2500*%
G04:AMPARAMS|DCode=17|XSize=0.65mm|YSize=0.65mm|CornerRadius=0.1375mm|HoleSize=0mm|Usage=FLASHONLY|Rotation=90.000|XOffset=0mm|YOffset=0mm|HoleType=Round|Shape=RoundedRectangle|*
%AMROUNDEDRECTD17*
21,1,0.6500,0.3750,0,0,90.0*
21,1,0.3750,0.6500,0,0,90.0*
1,1,0.2750,0.1875,0.1875*
1,1,0.2750,0.1875,-0.1875*
1,1,0.2750,-0.1875,-0.1875*
1,1,0.2750,-0.1875,0.1875*
%
%ADD17ROUNDEDRECTD17*%
%ADD18R,1.5300X1.0700*%
%ADD19R,1.2500X1.0000*%
%ADD20R,1.0700X1.5300*%
%ADD21R,0.7500X2.1200*%
%ADD22R,3.4500X2.5600*%
%ADD23R,1.4100X1.4100*%
%ADD24C,1.4100*%
%ADD25O,1.1500X2.1500*%
%ADD26O,1.1500X2.1500*%
%ADD27R,2.5500X2.5500*%
%ADD28C,1.8000*%
%ADD29C,2.4000*%
%ADD30R,1.4480X1.4480*%
%ADD31O,1.9280X1.6740*%
%ADD32C,1.6740*%
%ADD33R,2.4000X2.4000*%
%ADD34C,1.6500*%
%ADD35C,1.4480*%
%ADD36R,1.8000X1.8000*%
%ADD37C,2.5500*%
%ADD38C,1.4580*%
%ADD39C,1.9500*%
%ADD40C,2.1000*%
%ADD41R,1.8000X1.8000*%
%ADD42C,1.4080*%
D16*
X808830Y1002030D02*
D03*
X631030Y1027430D02*
D03*
X788830Y1002030D02*
D03*
X611030Y1027430D02*
D03*
D17*
X728280Y961200D02*
D03*
X704280Y953200D02*
D03*
X728280Y969200D02*
D03*
Y953200D02*
D03*
X704280Y977200D02*
D03*
Y969200D02*
D03*
Y961200D02*
D03*
X728280Y977400D02*
D03*
D18*
X468630Y847050D02*
D03*
X434340Y682600D02*
D03*
X426720Y1045870D02*
D03*
X468630Y866150D02*
D03*
X496570Y815300D02*
D03*
Y834400D02*
D03*
X434340Y701700D02*
D03*
X406400Y819160D02*
D03*
Y800060D02*
D03*
X494030Y1027430D02*
D03*
X426720Y1026770D02*
D03*
X624840Y442570D02*
D03*
X619760Y295250D02*
D03*
X624840Y158700D02*
D03*
X619760Y314350D02*
D03*
X624840Y177800D02*
D03*
Y461670D02*
D03*
X494030Y1008330D02*
D03*
D19*
X458470Y683420D02*
D03*
X436880Y848520D02*
D03*
X401320Y710710D02*
D03*
X436880Y868520D02*
D03*
X497840Y751350D02*
D03*
Y771350D02*
D03*
X458470Y703420D02*
D03*
X401320Y730710D02*
D03*
D20*
X366370Y798180D02*
D03*
X685190Y381000D02*
D03*
X666090D02*
D03*
X685190Y553720D02*
D03*
X666090D02*
D03*
X385470Y798180D02*
D03*
X685190Y177800D02*
D03*
X666090D02*
D03*
X763930Y1002030D02*
D03*
X744830D02*
D03*
D21*
X445770Y796910D02*
D03*
X433070Y747410D02*
D03*
X471170Y796910D02*
D03*
Y747410D02*
D03*
X458470D02*
D03*
X445770D02*
D03*
X433070Y796910D02*
D03*
X458470D02*
D03*
D22*
X452120Y772160D02*
D03*
D23*
X546100Y353060D02*
D03*
Y490220D02*
D03*
Y210820D02*
D03*
D24*
X520700Y353060D02*
D03*
Y276860D02*
D03*
X546100D02*
D03*
X520700Y490220D02*
D03*
Y414020D02*
D03*
X546100D02*
D03*
X520700Y210820D02*
D03*
Y134620D02*
D03*
X546100D02*
D03*
D25*
X396240Y1117600D02*
D03*
X370840D02*
D03*
D26*
X383540D02*
D03*
D27*
X883920Y1132840D02*
D03*
D28*
X528320Y1143000D02*
D03*
X1383030Y443230D02*
D03*
Y290830D02*
D03*
Y595630D02*
D03*
Y748030D02*
D03*
D29*
X790380Y858520D02*
D03*
X764100Y685800D02*
D03*
Y279400D02*
D03*
Y482600D02*
D03*
D30*
X660400Y611700D02*
D03*
Y459300D02*
D03*
Y281500D02*
D03*
D31*
X1105916Y159258D02*
D03*
X1130808D02*
D03*
X1080770D02*
D03*
X1056132D02*
D03*
D32*
X482600Y-25400D02*
D03*
X279400Y533400D02*
D03*
Y381000D02*
D03*
X482600Y-102870D02*
D03*
Y-77470D02*
D03*
Y-50800D02*
D03*
X918210Y-78740D02*
D03*
Y-27940D02*
D03*
X25400Y685800D02*
D03*
Y482600D02*
D03*
Y228600D02*
D03*
Y660400D02*
D03*
Y635000D02*
D03*
Y609600D02*
D03*
Y584200D02*
D03*
Y558800D02*
D03*
Y533400D02*
D03*
Y508000D02*
D03*
Y457200D02*
D03*
Y431800D02*
D03*
Y406400D02*
D03*
Y381000D02*
D03*
Y355600D02*
D03*
Y330200D02*
D03*
Y304800D02*
D03*
Y279400D02*
D03*
Y254000D02*
D03*
X279400Y660400D02*
D03*
Y635000D02*
D03*
Y584200D02*
D03*
Y558800D02*
D03*
Y609600D02*
D03*
Y685800D02*
D03*
Y228600D02*
D03*
Y355600D02*
D03*
Y406400D02*
D03*
Y431800D02*
D03*
Y457200D02*
D03*
Y482600D02*
D03*
Y508000D02*
D03*
Y254000D02*
D03*
Y279400D02*
D03*
Y304800D02*
D03*
Y330200D02*
D03*
D33*
X963100Y685800D02*
D03*
Y279400D02*
D03*
Y482600D02*
D03*
X591380Y858520D02*
D03*
D34*
X850900Y370840D02*
D03*
X876300D02*
D03*
X850900Y563880D02*
D03*
X876300D02*
D03*
X850900Y767080D02*
D03*
X876300D02*
D03*
D35*
X711200Y611700D02*
D03*
X685800D02*
D03*
X711200Y459300D02*
D03*
X685800D02*
D03*
X711200Y281500D02*
D03*
X685800D02*
D03*
D36*
X579120Y1143000D02*
D03*
D37*
X833120Y1132840D02*
D03*
X782320D02*
D03*
D38*
X1052790Y267350D02*
D03*
Y387350D02*
D03*
Y802950D02*
D03*
Y599750D02*
D03*
Y479750D02*
D03*
Y682950D02*
D03*
D39*
X1174790Y387350D02*
D03*
Y267350D02*
D03*
Y599750D02*
D03*
Y479750D02*
D03*
Y682950D02*
D03*
Y802950D02*
D03*
D40*
X1032790Y326150D02*
D03*
Y538550D02*
D03*
Y741750D02*
D03*
D41*
X1383030Y392430D02*
D03*
Y240030D02*
D03*
Y544830D02*
D03*
Y697230D02*
D03*
D42*
X533400Y842720D02*
D03*
Y772720D02*
D03*
M02*
