G04*
G04 #@! TF.GenerationSoftware,Altium Limited,Altium Designer,25.5.2 (35)*
G04*
G04 Layer_Color=65535*
%FSLAX44Y44*%
%MOMM*%
G71*
G04*
G04 #@! TF.SameCoordinates,152D6A4D-AA4F-4EEC-A116-D63785992ADA*
G04*
G04*
G04 #@! TF.FilePolarity,Positive*
G04*
G01*
G75*
%ADD10C,0.2000*%
%ADD11C,0.2500*%
%ADD12C,0.1500*%
%ADD13C,0.1270*%
%ADD14C,0.2540*%
%ADD15C,0.1000*%
D10*
X547100Y365760D02*
G03*
X547100Y365760I-1000J0D01*
G01*
Y502920D02*
G03*
X547100Y502920I-1000J0D01*
G01*
Y223520D02*
G03*
X547100Y223520I-1000J0D01*
G01*
X403340Y1102600D02*
G03*
X363740Y1102600I-19800J15000D01*
G01*
X982600Y685800D02*
G03*
X982600Y685800I-1000J0D01*
G01*
Y279400D02*
G03*
X982600Y279400I-1000J0D01*
G01*
Y482600D02*
G03*
X982600Y482600I-1000J0D01*
G01*
X472920Y812560D02*
G03*
X472920Y812560I-1000J0D01*
G01*
X644910Y611700D02*
G03*
X644910Y611700I-1000J0D01*
G01*
Y459300D02*
G03*
X644910Y459300I-1000J0D01*
G01*
Y281500D02*
G03*
X644910Y281500I-1000J0D01*
G01*
X884920Y1071840D02*
G03*
X884920Y1071840I-1000J0D01*
G01*
X1008790Y387350D02*
G03*
X1008790Y387350I-1000J0D01*
G01*
Y599750D02*
G03*
X1008790Y599750I-1000J0D01*
G01*
Y802950D02*
G03*
X1008790Y802950I-1000J0D01*
G01*
X692780Y953200D02*
G03*
X692780Y953200I-1000J0D01*
G01*
X573880Y858520D02*
G03*
X573880Y858520I-1000J0D01*
G01*
X363740Y1102600D02*
X403340D01*
X444130Y857270D02*
Y859770D01*
X429630Y857270D02*
Y859770D01*
X490590Y760100D02*
Y762600D01*
X505090Y760100D02*
Y762600D01*
X465720Y692170D02*
Y694670D01*
X451220Y692170D02*
Y694670D01*
X394070Y719460D02*
Y721960D01*
X408570Y719460D02*
Y721960D01*
X797580Y994780D02*
X800080D01*
X797580Y1009280D02*
X800080D01*
X619780Y1020180D02*
X622280D01*
X619780Y1034680D02*
X622280D01*
D11*
X356490Y1104100D02*
G03*
X356490Y1104100I-1250J0D01*
G01*
D12*
X845722Y362398D02*
G03*
X879306Y359703I17578J8442D01*
G01*
Y381977D02*
G03*
X845722Y379282I-16006J-11137D01*
G01*
Y555438D02*
G03*
X879306Y552743I17578J8442D01*
G01*
Y575017D02*
G03*
X845722Y572322I-16006J-11137D01*
G01*
Y758639D02*
G03*
X879306Y755943I17578J8442D01*
G01*
Y778217D02*
G03*
X845722Y775521I-16006J-11137D01*
G01*
X879306Y359703D02*
Y361133D01*
Y380546D02*
Y381977D01*
Y552743D02*
Y554174D01*
Y573587D02*
Y575017D01*
Y755943D02*
Y757374D01*
Y776786D02*
Y778217D01*
D13*
X707700Y621190D02*
G03*
X685586Y635008I-23024J-12242D01*
G01*
X686014D02*
G03*
X663900Y621190I910J-26061D01*
G01*
X707700Y468790D02*
G03*
X685586Y482608I-23024J-12242D01*
G01*
X686014D02*
G03*
X663900Y468790I910J-26061D01*
G01*
X707700Y290990D02*
G03*
X685586Y304808I-23024J-12242D01*
G01*
X686014D02*
G03*
X663900Y290990I910J-26061D01*
G01*
X495300Y363220D02*
X571500D01*
X495300Y266700D02*
X571500D01*
Y363220D01*
X495300Y266700D02*
Y363220D01*
Y500380D02*
X571500D01*
X495300Y403860D02*
X571500D01*
Y500380D01*
X495300Y403860D02*
Y500380D01*
Y220980D02*
X571500D01*
X495300Y124460D02*
X571500D01*
Y220980D01*
X495300Y124460D02*
Y220980D01*
X673940Y374200D02*
X677340D01*
X673940Y387800D02*
X677340D01*
X673940Y546920D02*
X677340D01*
X673940Y560520D02*
X677340D01*
X778900Y685800D02*
X818600D01*
X908600D02*
X948300D01*
X818600Y659300D02*
X908600D01*
X818600D02*
Y685800D01*
Y712300D01*
X908600D01*
Y685800D02*
Y712300D01*
Y659300D02*
Y685800D01*
X778900Y279400D02*
X818600D01*
X908600D02*
X948300D01*
X818600Y252900D02*
X908600D01*
X818600D02*
Y279400D01*
Y305900D01*
X908600D01*
Y279400D02*
Y305900D01*
Y252900D02*
Y279400D01*
X778900Y482600D02*
X818600D01*
X908600D02*
X948300D01*
X818600Y456100D02*
X908600D01*
X818600D02*
Y482600D01*
Y509100D01*
X908600D01*
Y482600D02*
Y509100D01*
Y456100D02*
Y482600D01*
X427120Y752160D02*
Y792160D01*
X477120Y752160D02*
Y792160D01*
X475430Y854900D02*
Y858300D01*
X461830Y854900D02*
Y858300D01*
X489770Y823150D02*
Y826550D01*
X503370Y823150D02*
Y826550D01*
X441140Y690450D02*
Y693850D01*
X427540Y690450D02*
Y693850D01*
X374220Y804980D02*
X377620D01*
X374220Y791380D02*
X377620D01*
X413200Y807910D02*
Y811310D01*
X399600Y807910D02*
Y811310D01*
X673940Y171000D02*
X677340D01*
X673940Y184600D02*
X677340D01*
X662800Y599000D02*
X708800D01*
X662800Y446600D02*
X708800D01*
X662800Y268800D02*
X708800D01*
X502920Y1174000D02*
X604520D01*
Y1102000D02*
Y1174000D01*
Y1184000D01*
X502920D02*
X604520D01*
X502920Y1174000D02*
Y1184000D01*
Y1102000D02*
Y1174000D01*
Y1102000D02*
X604520D01*
X909320Y1081840D02*
Y1183840D01*
X756920Y1081840D02*
Y1183840D01*
Y1081840D02*
X909320D01*
X756920Y1183840D02*
X909320D01*
X1016790Y405350D02*
X1208790D01*
Y249350D02*
Y405350D01*
X1016790Y249350D02*
X1208790D01*
X1016790D02*
Y405350D01*
Y617750D02*
X1208790D01*
Y461750D02*
Y617750D01*
X1016790Y461750D02*
X1208790D01*
X1016790D02*
Y617750D01*
X626560Y303100D02*
Y306500D01*
X612960Y303100D02*
Y306500D01*
X631640Y166550D02*
Y169950D01*
X618040Y166550D02*
Y169950D01*
X433520Y1034620D02*
Y1038020D01*
X419920Y1034620D02*
Y1038020D01*
X1342030Y214630D02*
Y316230D01*
X1414030D01*
X1424030D01*
Y214630D02*
Y316230D01*
X1414030Y214630D02*
X1424030D01*
X1342030D02*
X1414030D01*
Y316230D01*
X1016790Y664950D02*
Y820950D01*
Y664950D02*
X1208790D01*
Y820950D01*
X1016790D02*
X1208790D01*
X618040Y450420D02*
Y453820D01*
X631640Y450420D02*
Y453820D01*
X752680Y995230D02*
X756080D01*
X752680Y1008830D02*
X756080D01*
X709980Y950200D02*
X722580D01*
X709980Y980200D02*
X722580D01*
X524150Y790220D02*
Y796020D01*
Y790220D02*
X533400D01*
X542650D01*
Y796020D01*
X533400Y782220D02*
Y790220D01*
X524150Y825220D02*
X533400D01*
X542650D01*
X524150Y819420D02*
Y825220D01*
X542650Y819420D02*
Y825220D01*
X533400D02*
Y833220D01*
X487230Y1016180D02*
Y1019580D01*
X500830Y1016180D02*
Y1019580D01*
X645880Y858520D02*
Y885020D01*
Y832020D02*
Y858520D01*
Y832020D02*
X735880D01*
Y858520D01*
Y885020D01*
X645880D02*
X735880D01*
X606180Y858520D02*
X645880D01*
X735880D02*
X775580D01*
X1342030Y367030D02*
Y468630D01*
X1414030D01*
X1424030D01*
Y367030D02*
Y468630D01*
X1414030Y367030D02*
X1424030D01*
X1342030D02*
X1414030D01*
Y468630D01*
X1342030Y519430D02*
Y621030D01*
X1414030D01*
X1424030D01*
Y519430D02*
Y621030D01*
X1414030Y519430D02*
X1424030D01*
X1342030D02*
X1414030D01*
Y621030D01*
X1342030Y671830D02*
Y773430D01*
X1414030D01*
X1424030D01*
Y671830D02*
Y773430D01*
X1414030Y671830D02*
X1424030D01*
X1342030D02*
X1414030D01*
Y773430D01*
D14*
X466090Y-149860D02*
Y44450D01*
X963930Y-149860D02*
Y44450D01*
X466090Y-149860D02*
X963930D01*
X466090Y44450D02*
X963930D01*
X12700Y215900D02*
X292100D01*
X12700Y759900D02*
X292100D01*
Y215900D02*
Y759900D01*
X12700Y215900D02*
Y759900D01*
X529591Y369572D02*
Y379728D01*
X527052Y382267D01*
X521973D01*
X519434Y379728D01*
Y369572D01*
X521973Y367033D01*
X527052D01*
X524512Y372111D02*
X529591Y367033D01*
X527052D02*
X529591Y369572D01*
X534669Y379728D02*
X537208Y382267D01*
X542287D01*
X544826Y379728D01*
Y377189D01*
X542287Y374650D01*
X539748D01*
X542287D01*
X544826Y372111D01*
Y369572D01*
X542287Y367033D01*
X537208D01*
X534669Y369572D01*
X505460Y508002D02*
Y518158D01*
X502921Y520698D01*
X497842D01*
X495303Y518158D01*
Y508002D01*
X497842Y505462D01*
X502921D01*
X500382Y510541D02*
X505460Y505462D01*
X502921D02*
X505460Y508002D01*
X510538Y505462D02*
X515617D01*
X513078D01*
Y520698D01*
X510538Y518158D01*
X520701Y233682D02*
Y243838D01*
X518162Y246378D01*
X513083D01*
X510544Y243838D01*
Y233682D01*
X513083Y231143D01*
X518162D01*
X515622Y236221D02*
X520701Y231143D01*
X518162D02*
X520701Y233682D01*
X535936Y246378D02*
X525779D01*
Y238760D01*
X530858Y241299D01*
X533397D01*
X535936Y238760D01*
Y233682D01*
X533397Y231143D01*
X528318D01*
X525779Y233682D01*
X355346Y1166363D02*
Y1153667D01*
X357885Y1151128D01*
X362963D01*
X365503Y1153667D01*
Y1166363D01*
X370581Y1151128D02*
X375659D01*
X373120D01*
Y1166363D01*
X370581Y1163824D01*
X698505Y373382D02*
Y388618D01*
X706123D01*
X708662Y386078D01*
Y381000D01*
X706123Y378461D01*
X698505D01*
X703584D02*
X708662Y373382D01*
X713740D02*
X718819D01*
X716280D01*
Y388618D01*
X713740Y386078D01*
X726436Y373382D02*
X731515D01*
X728976D01*
Y388618D01*
X726436Y386078D01*
X701044Y544832D02*
Y560067D01*
X708662D01*
X711201Y557528D01*
Y552450D01*
X708662Y549911D01*
X701044D01*
X706123D02*
X711201Y544832D01*
X716279Y557528D02*
X718818Y560067D01*
X723897D01*
X726436Y557528D01*
Y554989D01*
X723897Y552450D01*
X726436Y549911D01*
Y547372D01*
X723897Y544832D01*
X718818D01*
X716279Y547372D01*
Y549911D01*
X718818Y552450D01*
X716279Y554989D01*
Y557528D01*
X718818Y552450D02*
X723897D01*
X842014Y694688D02*
Y679453D01*
X849632D01*
X852171Y681992D01*
Y692148D01*
X849632Y694688D01*
X842014D01*
X857249Y692148D02*
X859788Y694688D01*
X864867D01*
X867406Y692148D01*
Y689609D01*
X864867Y687070D01*
X862327D01*
X864867D01*
X867406Y684531D01*
Y681992D01*
X864867Y679453D01*
X859788D01*
X857249Y681992D01*
X852174Y294638D02*
Y279403D01*
X859792D01*
X862331Y281942D01*
Y292098D01*
X859792Y294638D01*
X852174D01*
X867409D02*
X877566D01*
Y292098D01*
X867409Y281942D01*
Y279403D01*
X876304Y414017D02*
Y398783D01*
X883922D01*
X886461Y401322D01*
Y411478D01*
X883922Y414017D01*
X876304D01*
X901696D02*
X896618Y411478D01*
X891539Y406400D01*
Y401322D01*
X894078Y398783D01*
X899157D01*
X901696Y401322D01*
Y403861D01*
X899157Y406400D01*
X891539D01*
X872494Y496567D02*
Y481333D01*
X880112D01*
X882651Y483872D01*
Y494028D01*
X880112Y496567D01*
X872494D01*
X895347Y481333D02*
Y496567D01*
X887729Y488950D01*
X897886D01*
X810264Y601978D02*
Y586743D01*
X817882D01*
X820421Y589282D01*
Y599438D01*
X817882Y601978D01*
X810264D01*
X835656D02*
X825499D01*
Y594360D01*
X830577Y596899D01*
X833117D01*
X835656Y594360D01*
Y589282D01*
X833117Y586743D01*
X828038D01*
X825499Y589282D01*
X844554Y825498D02*
Y810263D01*
X852172D01*
X854711Y812802D01*
Y822958D01*
X852172Y825498D01*
X844554D01*
X869946Y810263D02*
X859789D01*
X869946Y820419D01*
Y822958D01*
X867407Y825498D01*
X862328D01*
X859789Y822958D01*
X397514Y781048D02*
Y768352D01*
X400053Y765813D01*
X405132D01*
X407671Y768352D01*
Y781048D01*
X420367Y765813D02*
Y781048D01*
X412749Y773430D01*
X422906D01*
X461014Y883923D02*
Y899157D01*
X468632D01*
X471171Y896618D01*
Y891540D01*
X468632Y889001D01*
X461014D01*
X466092D02*
X471171Y883923D01*
X486406Y899157D02*
X481328Y896618D01*
X476249Y891540D01*
Y886462D01*
X478788Y883923D01*
X483867D01*
X486406Y886462D01*
Y889001D01*
X483867Y891540D01*
X476249D01*
X433071Y899158D02*
X430532Y901697D01*
X425453D01*
X422914Y899158D01*
Y889002D01*
X425453Y886462D01*
X430532D01*
X433071Y889002D01*
X448306Y901697D02*
X443228Y899158D01*
X438149Y894080D01*
Y889002D01*
X440688Y886462D01*
X445767D01*
X448306Y889002D01*
Y891541D01*
X445767Y894080D01*
X438149D01*
X486414Y861062D02*
Y876298D01*
X494032D01*
X496571Y873758D01*
Y868680D01*
X494032Y866141D01*
X486414D01*
X491493D02*
X496571Y861062D01*
X501649Y873758D02*
X504188Y876298D01*
X509267D01*
X511806Y873758D01*
Y871219D01*
X509267Y868680D01*
X506727D01*
X509267D01*
X511806Y866141D01*
Y863602D01*
X509267Y861062D01*
X504188D01*
X501649Y863602D01*
X502921Y736598D02*
X500382Y739137D01*
X495303D01*
X492764Y736598D01*
Y726442D01*
X495303Y723903D01*
X500382D01*
X502921Y726442D01*
X515617Y723903D02*
Y739137D01*
X507999Y731520D01*
X518156D01*
X391164Y673102D02*
Y688337D01*
X398782D01*
X401321Y685798D01*
Y680720D01*
X398782Y678181D01*
X391164D01*
X396242D02*
X401321Y673102D01*
X406399Y688337D02*
X416556D01*
Y685798D01*
X406399Y675642D01*
Y673102D01*
X486411Y698498D02*
X483872Y701038D01*
X478793D01*
X476254Y698498D01*
Y688342D01*
X478793Y685803D01*
X483872D01*
X486411Y688342D01*
X491489Y698498D02*
X494028Y701038D01*
X499107D01*
X501646Y698498D01*
Y695959D01*
X499107Y693420D01*
X496567D01*
X499107D01*
X501646Y690881D01*
Y688342D01*
X499107Y685803D01*
X494028D01*
X491489Y688342D01*
X372111Y727708D02*
X369572Y730247D01*
X364493D01*
X361954Y727708D01*
Y717552D01*
X364493Y715013D01*
X369572D01*
X372111Y717552D01*
X387346Y730247D02*
X377189D01*
Y722630D01*
X382267Y725169D01*
X384807D01*
X387346Y722630D01*
Y717552D01*
X384807Y715013D01*
X379728D01*
X377189Y717552D01*
X314964Y789942D02*
Y805178D01*
X322582D01*
X325121Y802638D01*
Y797560D01*
X322582Y795021D01*
X314964D01*
X320042D02*
X325121Y789942D01*
X340356Y805178D02*
X330199D01*
Y797560D01*
X335277Y800099D01*
X337817D01*
X340356Y797560D01*
Y792482D01*
X337817Y789942D01*
X332738D01*
X330199Y792482D01*
X402594Y828043D02*
Y843278D01*
X410212D01*
X412751Y840738D01*
Y835660D01*
X410212Y833121D01*
X402594D01*
X407673D02*
X412751Y828043D01*
X425447D02*
Y843278D01*
X417829Y835660D01*
X427986D01*
X708666Y170182D02*
Y185417D01*
X716284D01*
X718823Y182878D01*
Y177800D01*
X716284Y175261D01*
X708666D01*
X713745D02*
X718823Y170182D01*
X723901D02*
X728980D01*
X726440D01*
Y185417D01*
X723901Y182878D01*
X736597D02*
X739136Y185417D01*
X744215D01*
X746754Y182878D01*
Y180339D01*
X744215Y177800D01*
X741675D01*
X744215D01*
X746754Y175261D01*
Y172722D01*
X744215Y170182D01*
X739136D01*
X736597Y172722D01*
X445773Y50803D02*
X448312D01*
X450852Y53342D01*
Y66038D01*
X461008Y55882D02*
X466087D01*
X463548D01*
Y71117D01*
X461008Y68577D01*
X734061Y605792D02*
Y615948D01*
X731522Y618488D01*
X726443D01*
X723904Y615948D01*
Y605792D01*
X726443Y603252D01*
X731522D01*
X728982Y608331D02*
X734061Y603252D01*
X731522D02*
X734061Y605792D01*
X749296Y603252D02*
X739139D01*
X749296Y613409D01*
Y615948D01*
X746757Y618488D01*
X741678D01*
X739139Y615948D01*
X681991Y490222D02*
Y500378D01*
X679452Y502918D01*
X674373D01*
X671834Y500378D01*
Y490222D01*
X674373Y487682D01*
X679452D01*
X676913Y492761D02*
X681991Y487682D01*
X679452D02*
X681991Y490222D01*
X694687Y487682D02*
Y502918D01*
X687069Y495300D01*
X697226D01*
X684531Y312422D02*
Y322578D01*
X681992Y325117D01*
X676913D01*
X674374Y322578D01*
Y312422D01*
X676913Y309883D01*
X681992D01*
X679453Y314961D02*
X684531Y309883D01*
X681992D02*
X684531Y312422D01*
X699766Y325117D02*
X694688Y322578D01*
X689609Y317500D01*
Y312422D01*
X692148Y309883D01*
X697227D01*
X699766Y312422D01*
Y314961D01*
X697227Y317500D01*
X689609D01*
X469903Y1154433D02*
Y1169668D01*
X477521D01*
X480060Y1167128D01*
Y1162050D01*
X477521Y1159511D01*
X469903D01*
X485138Y1154433D02*
X490217D01*
X487678D01*
Y1169668D01*
X485138Y1167128D01*
X943611Y1177288D02*
X938532D01*
X941072D01*
Y1164592D01*
X938532Y1162053D01*
X935993D01*
X933454Y1164592D01*
X958846Y1162053D02*
X948689D01*
X958846Y1172209D01*
Y1174748D01*
X956307Y1177288D01*
X951228D01*
X948689Y1174748D01*
X1008340Y431033D02*
Y415798D01*
Y420876D01*
X1018497Y431033D01*
X1010879Y423415D01*
X1018497Y415798D01*
X1023575Y428494D02*
X1026114Y431033D01*
X1031193D01*
X1033732Y428494D01*
Y425955D01*
X1031193Y423415D01*
X1028653D01*
X1031193D01*
X1033732Y420876D01*
Y418337D01*
X1031193Y415798D01*
X1026114D01*
X1023575Y418337D01*
X995934Y176532D02*
X998473D01*
X1001012Y179071D01*
Y191767D01*
X1011169Y194306D02*
X1013708Y196845D01*
X1018787D01*
X1021326Y194306D01*
Y191767D01*
X1018787Y189228D01*
X1016247D01*
X1018787D01*
X1021326Y186688D01*
Y184149D01*
X1018787Y181610D01*
X1013708D01*
X1011169Y184149D01*
X13970Y784093D02*
Y771397D01*
X16509Y768858D01*
X21588D01*
X24127Y771397D01*
Y784093D01*
X29205Y781554D02*
X31744Y784093D01*
X36823D01*
X39362Y781554D01*
Y779015D01*
X36823Y776476D01*
X34283D01*
X36823D01*
X39362Y773936D01*
Y771397D01*
X36823Y768858D01*
X31744D01*
X29205Y771397D01*
X1008380Y643377D02*
Y628142D01*
Y633220D01*
X1018537Y643377D01*
X1010919Y635760D01*
X1018537Y628142D01*
X1033772D02*
X1023615D01*
X1033772Y638299D01*
Y640838D01*
X1031233Y643377D01*
X1026154D01*
X1023615Y640838D01*
X612648Y329438D02*
Y344673D01*
X620266D01*
X622805Y342134D01*
Y337056D01*
X620266Y334516D01*
X612648D01*
X617726D02*
X622805Y329438D01*
X627883D02*
X632961D01*
X630422D01*
Y344673D01*
X627883Y342134D01*
X640579D02*
X643118Y344673D01*
X648196D01*
X650736Y342134D01*
Y331977D01*
X648196Y329438D01*
X643118D01*
X640579Y331977D01*
Y342134D01*
X617728Y192786D02*
Y208021D01*
X625345D01*
X627885Y205482D01*
Y200403D01*
X625345Y197864D01*
X617728D01*
X622806D02*
X627885Y192786D01*
X632963D02*
X638041D01*
X635502D01*
Y208021D01*
X632963Y205482D01*
X655816Y192786D02*
X645659D01*
X655816Y202943D01*
Y205482D01*
X653277Y208021D01*
X648198D01*
X645659Y205482D01*
X419608Y1060958D02*
Y1076193D01*
X427225D01*
X429765Y1073654D01*
Y1068576D01*
X427225Y1066036D01*
X419608D01*
X424686D02*
X429765Y1060958D01*
X434843D02*
X439921D01*
X437382D01*
Y1076193D01*
X434843Y1073654D01*
X1341882Y326644D02*
Y341879D01*
X1349500D01*
X1352039Y339340D01*
Y334262D01*
X1349500Y331722D01*
X1341882D01*
X1367274Y341879D02*
X1357117D01*
Y334262D01*
X1362195Y336801D01*
X1364735D01*
X1367274Y334262D01*
Y329183D01*
X1364735Y326644D01*
X1359656D01*
X1357117Y329183D01*
X692404Y1005835D02*
Y993139D01*
X694943Y990600D01*
X700022D01*
X702561Y993139D01*
Y1005835D01*
X717796Y990600D02*
X707639D01*
X717796Y1000757D01*
Y1003296D01*
X715257Y1005835D01*
X710178D01*
X707639Y1003296D01*
X617728Y476758D02*
Y491993D01*
X625345D01*
X627885Y489454D01*
Y484375D01*
X625345Y481836D01*
X617728D01*
X622806D02*
X627885Y476758D01*
X632963Y479297D02*
X635502Y476758D01*
X640581D01*
X643120Y479297D01*
Y489454D01*
X640581Y491993D01*
X635502D01*
X632963Y489454D01*
Y486915D01*
X635502Y484375D01*
X643120D01*
X486918Y1042416D02*
Y1057651D01*
X494535D01*
X497075Y1055112D01*
Y1050033D01*
X494535Y1047494D01*
X486918D01*
X491996D02*
X497075Y1042416D01*
X512310D02*
X502153D01*
X512310Y1052573D01*
Y1055112D01*
X509771Y1057651D01*
X504692D01*
X502153Y1055112D01*
X1341882Y479044D02*
Y494279D01*
X1349500D01*
X1352039Y491740D01*
Y486661D01*
X1349500Y484122D01*
X1341882D01*
X1364735Y479044D02*
Y494279D01*
X1357117Y486661D01*
X1367274D01*
X1341882Y631444D02*
Y646679D01*
X1349500D01*
X1352039Y644140D01*
Y639062D01*
X1349500Y636522D01*
X1341882D01*
X1357117Y644140D02*
X1359656Y646679D01*
X1364735D01*
X1367274Y644140D01*
Y641601D01*
X1364735Y639062D01*
X1362195D01*
X1364735D01*
X1367274Y636522D01*
Y633983D01*
X1364735Y631444D01*
X1359656D01*
X1357117Y633983D01*
X1341882Y783844D02*
Y799079D01*
X1349500D01*
X1352039Y796540D01*
Y791461D01*
X1349500Y788922D01*
X1341882D01*
X1367274Y783844D02*
X1357117D01*
X1367274Y794001D01*
Y796540D01*
X1364735Y799079D01*
X1359656D01*
X1357117Y796540D01*
X524002Y874517D02*
Y859282D01*
X534159D01*
X539237D02*
X544315D01*
X541776D01*
Y874517D01*
X539237Y871978D01*
X1008380Y846577D02*
Y831342D01*
Y836420D01*
X1018537Y846577D01*
X1010919Y838960D01*
X1018537Y831342D01*
X1023615D02*
X1028693D01*
X1026154D01*
Y846577D01*
X1023615Y844038D01*
X573532Y910585D02*
Y895350D01*
X581149D01*
X583689Y897889D01*
Y908046D01*
X581149Y910585D01*
X573532D01*
X588767Y895350D02*
X593845D01*
X591306D01*
Y910585D01*
X588767Y908046D01*
X794509Y1031490D02*
X791970Y1034029D01*
X786891D01*
X784352Y1031490D01*
Y1021333D01*
X786891Y1018794D01*
X791970D01*
X794509Y1021333D01*
X809744Y1018794D02*
X799587D01*
X809744Y1028951D01*
Y1031490D01*
X807205Y1034029D01*
X802126D01*
X799587Y1031490D01*
X616709Y1056890D02*
X614170Y1059429D01*
X609091D01*
X606552Y1056890D01*
Y1046733D01*
X609091Y1044194D01*
X614170D01*
X616709Y1046733D01*
X621787Y1044194D02*
X626865D01*
X624326D01*
Y1059429D01*
X621787Y1056890D01*
X739902Y1019302D02*
X744980D01*
X742441D01*
Y1034537D01*
X739902Y1031998D01*
X752598D02*
X755137Y1034537D01*
X760215D01*
X762755Y1031998D01*
Y1021841D01*
X760215Y1019302D01*
X755137D01*
X752598Y1021841D01*
Y1031998D01*
X767833Y1019302D02*
Y1034537D01*
Y1024380D02*
X775451Y1029459D01*
X767833Y1024380D02*
X775451Y1019302D01*
D15*
X837528Y374196D02*
Y367340D01*
X834100Y370768D02*
X840956D01*
X837528Y567236D02*
Y560380D01*
X834100Y563808D02*
X840956D01*
X837528Y770436D02*
Y763580D01*
X834100Y767008D02*
X840956D01*
M02*
