M48
;Layer_Color=9474304
;FILE_FORMAT=2:5
INCH,LZ
;TYPE=PLATED
T01F00S00C0.02953
T02F00S00C0.03000
T03F00S00C0.03110
T04F00S00C0.03150
T05F00S00C0.03307
T06F00S00C0.03543
T08F00S00C0.03937
T09F00S00C0.04331
T10F00S00C0.04724
T11F00S00C0.05118
T12F00S00C0.05906
T13F00S00C0.06299
%
T01
X021Y0304221
Y033178
T02
X019Y-00405
Y-00305
Y-002
Y-001
X03615Y-0011
Y-0031
X011Y009
Y01
Y011
Y012
Y013
Y014
Y015
Y016
Y017
Y018
Y019
Y02
Y021
X001
Y02
Y019
Y018
Y017
Y016
Y015
Y014
Y013
Y012
Y011
Y01
Y009
Y022
Y023
Y024
Y025
Y026
Y027
X011
Y026
Y025
Y024
Y023
Y022
T03
X026Y0110827
X027
X028
Y0180827
X027
X026
Y0240827
X027
X028
T04
X0414484Y0105256
Y01525
Y0188878
Y0236122
Y0268878
Y0316122
T05
X0205Y0053
X0215
Y0083
Y0109
Y0139
Y0163
Y0193
X0205
Y0163
Y0139
Y0109
Y0083
T06
X0146Y044
X0151
X0156
T08
X0335Y0146
X0345
Y0222
X0335
Y0302
X0345
T09
X05445Y00945
Y01145
Y01545
Y01745
Y02145
Y02345
Y02745
Y02945
X0228Y045
X0208
T10
X0462516Y0105256
Y01525
Y0188878
Y0236122
Y0268878
Y0316122
T11
X040661Y0128405
Y0212028
Y0292028
T12
X0379173Y011
Y019
X0300827
Y011
Y027
X0311173Y0338
X0232827
X0379173Y027
T13
X0308Y0446
X0328
X0348
M30
